<svg xmlns="http://www.w3.org/2000/svg" xmlns:xlink="http://www.w3.org/1999/xlink" xmlns:i="http://ns.adobe.com/AdobeIllustrator/10.0/" version="1.1" viewBox="0 0 1920 1080">
  <defs>
    <style>
      .cls-1, .cls-2, .cls-3 {
        fill: #001c40;
      }
      .cls-4 {
        fill: #ffffff;
      }
      .cls-5 {
        fill: #f0f0f0;
      }
      .cls-6 {
        fill: #e0e0e0;
      }
      .cls-7 {
        fill: #001c40;
      }
      .cls-8 {
        fill: #ffffff;
      }
      .cls-9 {
        fill: #001c40;
      }
      .cls-10 {
        fill: #001c40;
      }
      .cls-11 {
        fill: #001c40;
      }
      .cls-12 {
        fill: #001c40;
      }
      .cls-13 {
        fill: #001c40;
      }
      .cls-14 {
        fill: #001c40;
      }
      .cls-15 {
        fill: #001c40;
      }
      .cls-16 {
        fill: #001c40;
      }
      .cls-17 {
        fill: #001c40;
        font-family: Arial, sans-serif;
        font-size: 24px;
        font-weight: bold;
      }
      .cls-18 {
        fill: #f0f0f0;
      }
      .cls-19 {
        fill: #e0e0e0;
      }
    </style>
  </defs>
  <g>
    <g id="Camada_1">
      <rect class="cls-8" x="951.03" y="1772.39" width="968.97" height="585.24"/>
      <rect class="cls-18" y="1772.39" width="951.03" height="585.24"/>
      <rect class="cls-19" x="-7.89" y="1277.63" width="1927.89" height="500.05"/>
      <text class="cls-17" transform="translate(80.75 1387.07)"><tspan x="0" y="0">VERSÕES DA LOGO</tspan></text>
      
      <g>
        <path class="cls-4" d="M321.32,2902.45l34-80.17c.76-1.59,1.89-2.39,3.41-2.39h67.43c1.14,0,1.71.34,1.71,1.02,0,.3-.11.76-.34,1.36l-8.07,18.99c-.61,1.59-1.75,2.39-3.41,2.39h-41.28l-3.53,8.3h36.73c1.14,0,1.71.34,1.71,1.02,0,.3-.11.76-.34,1.36l-6.71,15.81c-.61,1.59-1.71,2.39-3.3,2.39h-36.73l-12.74,29.91c-.61,1.59-1.74,2.39-3.41,2.39h-23.77c-1.52,0-1.97-.8-1.36-2.39Z"/>
        <path class="cls-4" d="M405.81,2895.96c0-2.96.91-6.6,2.73-10.92l17.17-40.37c.53-1.44,1.55-2.16,3.07-2.16h21.72c1.36,0,1.78.72,1.25,2.16l-14.78,34.68c-.3.68-.45,1.33-.45,1.93,0,.84.57,1.25,1.71,1.25h15.58l16.15-37.87c.53-1.44,1.55-2.16,3.07-2.16h21.72c1.36,0,1.78.72,1.25,2.16l-16.15,37.87h2.96c1.52,0,1.93.72,1.25,2.16l-7.62,17.97c-.53,1.44-1.55,2.16-3.07,2.16h-12.85c-1.44,0-2.62-.34-3.53-1.02l-8.3-6.37-13.76,6.37c-1.59.68-3.07,1.02-4.44,1.02h-13.76c-7.28,0-10.92-2.96-10.92-8.87Z"/>
        <path class="cls-4" d="M487.91,2896.19c0-1.74.32-3.7.97-5.86.64-2.16,1.5-4.57,2.56-7.22l7.73-18.31h-3.52c-1.36,0-1.78-.72-1.25-2.16l7.73-17.97c.53-1.44,1.55-2.16,3.07-2.16h3.52l8.64-20.47c.68-1.44,1.71-2.16,3.07-2.16h22.29c1.52,0,1.93.72,1.25,2.16l-8.64,20.47h12.85c1.52,0,1.93.72,1.25,2.16l-7.73,17.97c-.68,1.44-1.71,2.16-3.07,2.16h-12.85l-6.14,14.56c-.38.91-.57,1.59-.57,2.05,0,.76.57,1.14,1.71,1.14h18.54c1.52,0,1.93.72,1.25,2.16l-7.62,17.97c-.53,1.44-1.55,2.16-3.07,2.16h-29.22c-4.62,0-7.9-.74-9.84-2.22s-2.9-3.62-2.9-6.43Z"/>
        <path class="cls-4" d="M542.15,2895.62c0-2.43.76-5.46,2.27-9.1l10.23-23.99c1.74-4.09,3.54-7.45,5.4-10.06,1.86-2.62,3.96-4.66,6.31-6.14,2.35-1.48,5.04-2.48,8.07-3.01,3.03-.53,6.6-.8,10.69-.8h26.38c5.23,0,9.06.82,11.49,2.45,2.43,1.63,3.64,4.04,3.64,7.22,0,2.73-.8,5.91-2.39,9.55l-4.55,10.58c-.91,2.2-2.07,3.79-3.47,4.78-1.4.99-3.2,1.48-5.4,1.48h-36.62l-.45.91c-.38.68-.57,1.33-.57,1.93,0,.76.57,1.14,1.71,1.14h31.95c1.52,0,1.93.72,1.25,2.16l-7.62,17.97c-.53,1.44-1.55,2.16-3.07,2.16h-41.85c-4.63,0-8.02-.78-10.18-2.33-2.16-1.55-3.24-3.85-3.24-6.88ZM597.19,2867.88l.57-1.25c.38-.83.44-1.34.17-1.54-.27-.19-.93-.28-1.99-.28h-13.53c-1.06,0-1.8.17-2.22.51-.42.34-.93,1.19-1.54,2.56h18.54Z"/>
      </g>
      <g>
        <path class="cls-14" d="M271.05,2923.88c-9.12,6.29-18.59,9.81-27.49,11.61-7.52,1.81-16.73,2.51-27.83.96-8.43-1.03-13.79-2.87-13.79-2.87-4.31-1.18-8.84-2.67-13.61-4.52,0,0-2.26-1.93-3.23-.68-.97,1.25-4.37,5.59-4.37,5.59,0,0-1.04,1.5-1.9-.08-.86-1.58-22.77-45.3-22.77-45.3,0,0-1.85-2.48,2.3-1.5,4.15.98,31.25,4.99,54.27,4.13,0,0,3.16-.45.85,2.34-2.32,2.79-4.78,6.02-4.78,6.02,0,0-2.05,1.53.12,2.41,1.24.5,12.29,5.97,26.98,9.68,2.72.2,15.11,3.15,18.55,3.39,47.25,3.26,44.96-59.51,44.96-59.51,1.02,28.58,4.13,46.01-28.24,68.33Z"/>
      </g>
    </g>
  </g>
</svg>
