<svg xmlns="http://www.w3.org/2000/svg" xmlns:xlink="http://www.w3.org/1999/xlink" xmlns:i="http://ns.adobe.com/AdobeIllustrator/10.0/" version="1.1" viewBox="0 0 1920 1080">
  <defs>
    <style>
      .cls-1, .cls-2, .cls-3 {
        fill: #001c40;
      }
      .cls-4 {
        fill: #ffffff;
      }
      .cls-5 {
        fill: #f0f0f0;
      }
      .cls-6 {
        fill: #e0e0e0;
      }
      .cls-7 {
        fill: #001c40;
      }
      .cls-8 {
        fill: #ffffff;
      }
      .cls-9 {
        fill: #001c40;
      }
      .cls-10 {
        fill: #001c40;
      }
      .cls-11 {
        fill: #001c40;
      }
      .cls-12 {
        fill: #001c40;
      }
      .cls-13 {
        fill: #001c40;
      }
      .cls-14 {
        fill: #001c40;
      }
      .cls-15 {
        fill: #001c40;
      }
      .cls-16 {
        fill: #001c40;
      }
      .cls-17 {
        fill: #001c40;
        font-family: Arial, sans-serif;
        font-size: 24px;
        font-weight: bold;
      }
      .cls-18 {
        fill: #f0f0f0;
      }
      .cls-19 {
        fill: #e0e0e0;
      }
    </style>
  </defs>
  <g>
    <g id="Camada_1">
      <rect class="cls-1" x="602.37" y="3076.29" width="968.97" height="585.24"/>
      <rect class="cls-18" y="3076.29" width="602.37" height="585.24"/>
      <rect class="cls-19" x="-7.89" y="2581.53" width="1578.23" height="500.05"/>
      <text class="cls-17" transform="translate(80.75 2690.97)"><tspan x="0" y="0">VERSÕES DA LOGO</tspan></text>
      
      <g>
        <path class="cls-1" d="M176.9,2178.46l29.79-70.25c.66-1.39,1.66-2.09,2.99-2.09h59.09c1,0,1.49.3,1.49.9,0,.27-.1.66-.3,1.2l-7.07,16.64c-.53,1.39-1.53,2.09-2.99,2.09h-36.17l-3.09,7.27h32.19c1,0,1.49.3,1.49.9,0,.27-.1.66-.3,1.2l-5.88,13.85c-.53,1.39-1.49,2.09-2.89,2.09h-32.18l-11.16,26.21c-.53,1.39-1.53,2.09-2.99,2.09h-20.83c-1.33,0-1.73-.7-1.2-2.09Z"/>
        <path class="cls-1" d="M250.93,2172.78c0-2.59.8-5.78,2.39-9.57l15.05-35.37c.46-1.26,1.36-1.89,2.69-1.89h19.03c1.2,0,1.56.63,1.1,1.89l-12.95,30.39c-.27.6-.4,1.16-.4,1.69,0,.73.5,1.1,1.49,1.1h13.65l14.15-33.18c.46-1.26,1.36-1.89,2.69-1.89h19.03c1.2,0,1.56.63,1.1,1.89l-14.15,33.18h2.59c1.33,0,1.69.63,1.1,1.89l-6.68,15.74c-.47,1.26-1.36,1.89-2.69,1.89h-11.26c-1.26,0-2.29-.3-3.09-.9l-7.27-5.58-12.06,5.58c-1.4.6-2.69.9-3.89.9h-12.06c-6.38,0-9.57-2.59-9.57-7.77Z"/>
      </g>
      <g>
        <path class="cls-11" d="M529.93,2063.78c-10.39,7.17-21.18,11.17-31.31,13.22-8.56,2.07-19.06,2.86-31.7,1.1-9.6-1.18-15.71-3.27-15.71-3.27-4.9-1.34-10.07-3.04-15.51-5.15,0,0-2.57-2.2-3.68-.78-1.11,1.42-4.98,6.37-4.98,6.37,0,0-1.19,1.7-2.16-.09-.98-1.8-25.94-51.59-25.94-51.59,0,0-2.11-2.82,2.62-1.71,4.73,1.12,35.59,5.69,61.82,4.7,0,0,3.6-.51.96,2.66-2.64,3.17-5.45,6.85-5.45,6.85,0,0-2.34,1.74.13,2.74,1.41.57,14,6.8,30.73,11.03,3.09.23,17.21,3.59,21.13,3.86,53.82,3.72,51.21-67.78,51.21-67.78,1.16,32.56,4.7,52.4-32.17,77.82Z"/>
      </g>
      <g>
        <path class="cls-1" d="M669.98,1598.54l34-80.17c.76-1.59,1.89-2.39,3.41-2.39h67.43c1.14,0,1.71.34,1.71,1.02,0,.3-.11.76-.34,1.36l-8.07,18.99c-.61,1.59-1.75,2.39-3.41,2.39h-41.28l-3.53,8.3h36.73c1.14,0,1.71.34,1.71,1.02,0,.3-.11.76-.34,1.36l-6.71,15.81c-.61,1.59-1.71,2.39-3.3,2.39h-36.73l-12.74,29.91c-.61,1.59-1.74,2.39-3.41,2.39h-23.77c-1.52,0-1.97-.8-1.36-2.39Z"/>
        <path class="cls-1" d="M754.47,1592.05c0-2.96.91-6.6,2.73-10.92l17.17-40.37c.53-1.44,1.55-2.16,3.07-2.16h21.72c1.36,0,1.78.72,1.25,2.16l-14.78,34.68c-.3.68-.45,1.33-.45,1.93,0,.84.57,1.25,1.71,1.25h15.58l16.15-37.87c.53-1.44,1.55-2.16,3.07-2.16h21.72c1.36,0,1.78.72,1.25,2.16l-16.15,37.87h2.96c1.52,0,1.93.72,1.25,2.16l-7.62,17.97c-.53,1.44-1.55,2.16-3.07,2.16h-12.85c-1.44,0-2.62-.34-3.53-1.02l-8.3-6.37-13.76,6.37c-1.59.68-3.07,1.02-4.44,1.02h-13.76c-7.28,0-10.92-2.96-10.92-8.87Z"/>
        <path class="cls-1" d="M836.57,1592.28c0-1.74.32-3.7.97-5.86.64-2.16,1.5-4.57,2.56-7.22l7.73-18.31h-3.52c-1.36,0-1.78-.72-1.25-2.16l7.73-17.97c.53-1.44,1.55-2.16,3.07-2.16h3.52l8.64-20.47c.68-1.44,1.71-2.16,3.07-2.16h22.29c1.52,0,1.93.72,1.25,2.16l-8.64,20.47h12.85c1.52,0,1.93.72,1.25,2.16l-7.73,17.97c-.68,1.44-1.71,2.16-3.07,2.16h-12.85l-6.14,14.56c-.38.91-.57,1.59-.57,2.05,0,.76.57,1.14,1.71,1.14h18.54c1.52,0,1.93.72,1.25,2.16l-7.62,17.97c-.53,1.44-1.55,2.16-3.07,2.16h-29.22c-4.62,0-7.9-.74-9.84-2.22s-2.9-3.62-2.9-6.43Z"/>
        <path class="cls-1" d="M890.81,1591.71c0-2.43.76-5.46,2.27-9.1l10.23-23.99c1.74-4.09,3.54-7.45,5.4-10.06,1.86-2.62,3.96-4.66,6.31-6.14,2.35-1.48,5.04-2.48,8.07-3.01,3.03-.53,6.6-.8,10.69-.8h26.38c5.23,0,9.06.82,11.49,2.45,2.43,1.63,3.64,4.04,3.64,7.22,0,2.73-.8,5.91-2.39,9.55l-4.55,10.58c-.91,2.2-2.07,3.79-3.47,4.78-1.4.99-3.2,1.48-5.4,1.48h-36.62l-.45.91c-.38.68-.57,1.33-.57,1.93,0,.76.57,1.14,1.71,1.14h31.95c1.52,0,1.93.72,1.25,2.16l-7.62,17.97c-.53,1.44-1.55,2.16-3.07,2.16h-41.85c-4.63,0-8.02-.78-10.18-2.33-2.16-1.55-3.24-3.85-3.24-6.88ZM945.85,1563.97l.57-1.25c.38-.83.44-1.34.17-1.54-.27-.19-.93-.28-1.99-.28h-13.53c-1.06,0-1.8.17-2.22.51-.42.34-.93,1.19-1.54,2.56h18.54Z"/>
      </g>
      <g>
        <path class="cls-12" d="M1215.7,3475.12c-16.1,11.11-32.82,17.32-48.53,20.5-13.27,3.2-29.53,4.43-49.14,1.7-14.88-1.83-24.35-5.07-24.35-5.07-7.6-2.08-15.61-4.72-24.03-7.98,0,0-3.99-3.42-5.71-1.21-1.72,2.2-7.72,9.87-7.72,9.87,0,0-1.84,2.64-3.35-.14-1.51-2.78-40.2-79.96-40.2-79.96,0,0-3.26-4.38,4.06-2.64,7.33,1.73,55.17,8.82,95.81,7.29,0,0,5.58-.79,1.49,4.13-4.09,4.92-8.44,10.62-8.44,10.62,0,0-3.63,2.69.21,4.25,2.19.89,21.7,10.54,47.62,17.1,4.79.35,26.67,5.57,32.75,5.99,83.42,5.76,79.37-105.06,79.37-105.06,1.8,50.46,7.29,81.22-49.85,120.62Z"/>
      </g>
    </g>
  </g>
</svg>
