<svg xmlns="http://www.w3.org/2000/svg" xmlns:xlink="http://www.w3.org/1999/xlink" xmlns:i="http://ns.adobe.com/AdobeIllustrator/10.0/" version="1.1" viewBox="0 0 1920 1080">
  <defs>
    <style>
      .cls-1, .cls-2, .cls-3 {
        fill: #001c40;
      }
      .cls-4 {
        fill: #ffffff;
      }
      .cls-5 {
        fill: #f0f0f0;
      }
      .cls-6 {
        fill: #e0e0e0;
      }
      .cls-7 {
        fill: #001c40;
      }
      .cls-8 {
        fill: #ffffff;
      }
      .cls-9 {
        fill: #001c40;
      }
      .cls-10 {
        fill: #001c40;
      }
      .cls-11 {
        fill: #001c40;
      }
      .cls-12 {
        fill: #001c40;
      }
      .cls-13 {
        fill: #001c40;
      }
      .cls-14 {
        fill: #001c40;
      }
      .cls-15 {
        fill: #001c40;
      }
      .cls-16 {
        fill: #001c40;
      }
      .cls-17 {
        fill: #001c40;
        font-family: Arial, sans-serif;
        font-size: 24px;
        font-weight: bold;
      }
      .cls-18 {
        fill: #f0f0f0;
      }
      .cls-19 {
        fill: #e0e0e0;
      }
    </style>
  </defs>
  <g>
    <g id="Camada_1">
      <rect class="cls-4" x="951.03" y="494.76" width="968.97" height="585.24"/>
      <rect class="cls-5" y="494.76" width="951.03" height="585.24"/>
      <rect class="cls-6" x="-7.89" y="0" width="1927.89" height="500.05"/>
      <text class="cls-17" transform="translate(80.74 109.44)"><tspan x="0" y="0">VERSÕES DA LOGO</tspan></text>
      
      <g>
        <g>
          <path class="cls-4" d="M-171.77,3482.36l29.79-70.25c.66-1.39,1.66-2.09,2.99-2.09h59.09c1,0,1.49.3,1.49.9,0,.27-.1.66-.3,1.2l-7.07,16.64c-.53,1.39-1.53,2.09-2.99,2.09h-36.17l-3.09,7.27h32.19c1,0,1.49.3,1.49.9,0,.27-.1.66-.3,1.2l-5.88,13.85c-.53,1.39-1.49,2.09-2.89,2.09h-32.18l-11.16,26.21c-.53,1.39-1.53,2.09-2.99,2.09h-20.83c-1.33,0-1.73-.7-1.2-2.09Z"/>
          <path class="cls-4" d="M-97.73,3476.68c0-2.59.8-5.78,2.39-9.57l15.05-35.37c.46-1.26,1.36-1.89,2.69-1.89h19.03c1.2,0,1.56.63,1.1,1.89l-12.95,30.39c-.27.6-.4,1.16-.4,1.69,0,.73.5,1.1,1.49,1.1h13.65l14.15-33.18c.46-1.26,1.36-1.89,2.69-1.89h19.03c1.2,0,1.56.63,1.1,1.89l-14.15,33.18h2.59c1.33,0,1.69.63,1.1,1.89l-6.68,15.74c-.47,1.26-1.36,1.89-2.69,1.89h-11.26c-1.26,0-2.29-.3-3.09-.9l-7.27-5.58-12.06,5.58c-1.4.6-2.69.9-3.89.9h-12.06c-6.38,0-9.57-2.59-9.57-7.77Z"/>
          <path class="cls-4" d="M-25.79,3476.88c0-1.53.28-3.24.85-5.13.56-1.89,1.31-4,2.24-6.33l6.78-16.04h-3.09c-1.2,0-1.56-.63-1.1-1.89l6.78-15.74c.46-1.26,1.36-1.89,2.69-1.89h3.09L.02,3411.91c.6-1.26,1.49-1.89,2.69-1.89h19.53c1.33,0,1.69.63,1.1,1.89l-7.57,17.94h11.26c1.33,0,1.69.63,1.1,1.89l-6.78,15.74c-.6,1.26-1.49,1.89-2.69,1.89H7.39l-5.38,12.75c-.33.8-.5,1.39-.5,1.79,0,.66.5,1,1.49,1h16.24c1.33,0,1.69.63,1.1,1.89l-6.68,15.74c-.47,1.26-1.36,1.89-2.69,1.89H-14.63c-4.05,0-6.93-.65-8.62-1.94s-2.54-3.17-2.54-5.63Z"/>
          <path class="cls-4" d="M21.74,3476.38c0-2.13.66-4.78,1.99-7.97l8.97-21.03c1.53-3.59,3.1-6.53,4.73-8.82,1.63-2.29,3.47-4.09,5.53-5.38,2.06-1.3,4.42-2.18,7.07-2.64,2.66-.46,5.78-.7,9.37-.7h23.12c4.58,0,7.94.72,10.06,2.14,2.13,1.43,3.19,3.54,3.19,6.33,0,2.39-.7,5.18-2.09,8.37l-3.99,9.27c-.8,1.93-1.81,3.32-3.04,4.18-1.23.86-2.81,1.3-4.73,1.3h-32.09l-.4.8c-.33.6-.5,1.16-.5,1.69,0,.66.5,1,1.49,1h28c1.33,0,1.69.63,1.1,1.89l-6.68,15.74c-.47,1.26-1.36,1.89-2.69,1.89h-36.67c-4.05,0-7.03-.68-8.92-2.04-1.89-1.36-2.84-3.37-2.84-6.03ZM69.97,3452.07l.5-1.1c.33-.73.38-1.18.15-1.35-.23-.17-.81-.25-1.74-.25h-11.86c-.93,0-1.58.15-1.94.45-.37.3-.81,1.05-1.35,2.24h16.24Z"/>
          <path class="cls-4" d="M85.61,3482.36l7.17-16.84c.53-1.39,1.53-2.09,2.99-2.09h39.76c1.79,0,3.15-1.13,4.09-3.39l.2-.4c.26-.6.4-1.16.4-1.69,0-.86-.63-1.3-1.89-1.3h-25.11c-4.78,0-8.29-.61-10.51-1.84-2.23-1.23-3.34-3.14-3.34-5.73,0-1.79.5-3.89,1.49-6.28l7.57-17.84c1.33-3.05,2.66-5.55,3.99-7.47,1.33-1.93,2.92-3.44,4.78-4.53,1.86-1.1,4.07-1.86,6.63-2.29,2.56-.43,5.7-.65,9.42-.65h46.24c1,0,1.49.3,1.49.9,0,.27-.1.66-.3,1.2l-7.07,16.64c-.53,1.39-1.53,2.09-2.99,2.09h-36.87c-1.79,0-3.12,1.06-3.99,3.19l-.2.4c-.33.8-.5,1.39-.5,1.79,0,.93.63,1.39,1.89,1.39h26.11c8.63,0,12.95,2.56,12.95,7.67,0,1.93-.6,4.28-1.79,7.07l-7.87,18.43c-1.13,2.66-2.33,4.87-3.59,6.63-1.26,1.76-2.77,3.17-4.53,4.24-1.76,1.06-3.82,1.79-6.18,2.19-2.36.4-5.23.6-8.62.6h-50.62c-1.33,0-1.73-.7-1.2-2.09Z"/>
          <path class="cls-4" d="M167.52,3468.41l9.37-22.02c1.39-3.19,2.81-5.84,4.24-7.97,1.43-2.13,3.07-3.82,4.93-5.08,1.86-1.26,3.95-2.16,6.28-2.69,2.32-.53,5.08-.8,8.27-.8h32.88c1.2,0,1.56.63,1.1,1.89l-6.68,15.74c-.47,1.26-1.36,1.89-2.69,1.89h-24.11c-1.46,0-2.56.93-3.29,2.79l-4.28,9.96c-.33.8-.5,1.39-.5,1.79,0,.66.5,1,1.49,1h24.11c1.33,0,1.69.63,1.1,1.89l-6.68,15.74c-.47,1.26-1.36,1.89-2.69,1.89h-33.48c-3.65,0-6.43-.73-8.32-2.19-1.89-1.46-2.84-3.59-2.84-6.38,0-2.19.6-4.68,1.79-7.47Z"/>
          <path class="cls-4" d="M223.72,3474.79c0-2.46.6-5.08,1.79-7.87l8.77-20.83c1.26-3.05,2.59-5.61,3.99-7.67,1.4-2.06,2.97-3.72,4.73-4.98,1.76-1.26,3.77-2.17,6.03-2.74,2.26-.56,4.88-.85,7.87-.85h28.3c3.85,0,6.84.73,8.97,2.19,2.13,1.46,3.19,3.69,3.19,6.68,0,2.13-.6,4.58-1.79,7.37l-8.77,20.83c-1.33,3.19-2.79,5.9-4.38,8.12-1.59,2.23-3.42,4.04-5.48,5.43-2.06,1.39-4.38,2.41-6.98,3.04-2.59.63-5.55.95-8.87.95h-27.2c-3.45,0-6.01-.91-7.67-2.74-1.66-1.83-2.49-4.14-2.49-6.93ZM251.42,3464.92h11.16c1.53,0,2.66-.93,3.39-2.79l4.28-9.96c.26-.6.4-1.16.4-1.69,0-.73-.5-1.1-1.49-1.1h-11.16c-1.53,0-2.66.93-3.39,2.79l-4.28,9.96c-.27.6-.4,1.16-.4,1.69,0,.73.5,1.1,1.49,1.1Z"/>
          <path class="cls-4" d="M287.09,3482.56l14.05-33.18h-1.59c-1.2,0-1.56-.63-1.1-1.89l6.78-15.74c.46-1.26,1.36-1.89,2.69-1.89h22.22c1.2,0,1.56.63,1.1,1.89l-1.2,2.69,8.57-3.69c1.33-.6,2.62-.9,3.89-.9h9.67c3.12,0,5.41.45,6.88,1.35,1.46.9,2.19,2.34,2.19,4.33,0,1.73-.63,4.12-1.89,7.17l-8.67,20.43c-.47,1.26-1.36,1.89-2.69,1.89h-18.14c-1.33,0-1.69-.63-1.1-1.89l4.68-10.96c.33-.8.5-1.36.5-1.69,0-.73-.53-1.1-1.59-1.1h-8.07l-14.05,33.18c-.47,1.26-1.36,1.89-2.69,1.89h-19.33c-1.2,0-1.56-.63-1.1-1.89Z"/>
          <path class="cls-4" d="M351.66,3476.38c0-2.13.66-4.78,1.99-7.97l8.97-21.03c1.53-3.59,3.1-6.53,4.73-8.82,1.63-2.29,3.47-4.09,5.53-5.38,2.06-1.3,4.42-2.18,7.07-2.64,2.66-.46,5.78-.7,9.37-.7h23.12c4.58,0,7.94.72,10.06,2.14,2.13,1.43,3.19,3.54,3.19,6.33,0,2.39-.7,5.18-2.09,8.37l-3.99,9.27c-.8,1.93-1.81,3.32-3.04,4.18-1.23.86-2.81,1.3-4.73,1.3h-32.09l-.4.8c-.33.6-.5,1.16-.5,1.69,0,.66.5,1,1.49,1h28c1.33,0,1.69.63,1.1,1.89l-6.68,15.74c-.47,1.26-1.36,1.89-2.69,1.89h-36.67c-4.05,0-7.03-.68-8.92-2.04-1.89-1.36-2.84-3.37-2.84-6.03ZM399.89,3452.07l.5-1.1c.33-.73.38-1.18.15-1.35-.23-.17-.81-.25-1.74-.25h-11.86c-.93,0-1.58.15-1.94.45-.37.3-.81,1.05-1.35,2.24h16.24Z"/>
        </g>
        <g>
          <path class="cls-14" d="M181.27,3367.68c-10.39,7.17-21.18,11.17-31.31,13.22-8.56,2.07-19.06,2.86-31.7,1.1-9.6-1.18-15.71-3.27-15.71-3.27-4.9-1.34-10.07-3.04-15.51-5.15,0,0-2.57-2.2-3.68-.78-1.11,1.42-4.98,6.37-4.98,6.37,0,0-1.19,1.7-2.16-.09-.98-1.8-25.94-51.59-25.94-51.59,0,0-2.11-2.82,2.62-1.71,4.73,1.12,35.59,5.69,61.82,4.7,0,0,3.6-.51.96,2.66-2.64,3.17-5.45,6.85-5.45,6.85,0,0-2.34,1.74.13,2.74,1.41.57,14,6.8,30.73,11.03,3.09.23,17.21,3.59,21.13,3.86,53.82,3.72,51.21-67.78,51.21-67.78,1.16,32.56,4.7,52.4-32.17,77.82Z"/>
        </g>
      </g>
    </g>
  </g>
</svg>
